<svg xmlns:dc="http://purl.org/dc/elements/1.1/" xmlns:cc="http://creativecommons.org/ns#" xmlns:rdf="http://www.w3.org/1999/02/22-rdf-syntax-ns#" xmlns:svg="http://www.w3.org/2000/svg" xmlns="http://www.w3.org/2000/svg" xmlns:sodipodi="http://sodipodi.sourceforge.net/DTD/sodipodi-0.dtd" xmlns:inkscape="http://www.inkscape.org/namespaces/inkscape" viewBox="0 0 8.4666665 8.4666669" version="1.1" x="0px" y="0px"><g transform="translate(0,-288.53332)"><path style="color:#000000;font-style:normal;font-variant:normal;font-weight:normal;font-stretch:normal;font-size:medium;line-height:normal;font-family:sans-serif;font-variant-ligatures:normal;font-variant-position:normal;font-variant-caps:normal;font-variant-numeric:normal;font-variant-alternates:normal;font-feature-settings:normal;text-indent:0;text-align:start;text-decoration:none;text-decoration-line:none;text-decoration-style:solid;text-decoration-color:#000000;letter-spacing:normal;word-spacing:normal;text-transform:none;writing-mode:lr-tb;direction:ltr;text-orientation:mixed;dominant-baseline:auto;baseline-shift:baseline;text-anchor:start;white-space:normal;shape-padding:0;clip-rule:nonzero;display:inline;overflow:visible;visibility:visible;opacity:1;isolation:auto;mix-blend-mode:normal;color-interpolation:sRGB;color-interpolation-filters:linearRGB;solid-color:#000000;solid-opacity:1;fill:#000000;fill-opacity:1;fill-rule:evenodd;stroke:none;stroke-width:0.26458332;stroke-linecap:butt;stroke-linejoin:miter;stroke-miterlimit:4;stroke-dasharray:none;stroke-dashoffset:0;stroke-opacity:1;color-rendering:auto;image-rendering:auto;shape-rendering:auto;text-rendering:auto;enable-background:accumulate" d="m 3.9558363,288.84029 v 1.01801 c 0,0.41407 0.1215232,0.84772 0.4320117,1.15395 l 1.28778,1.26968 0.1854994,-0.18862 -1.2872509,-1.26968 c -0.245401,-0.24201 -0.3534568,-0.60351 -0.3534568,-0.96533 v -0.38394 l 3.034956,3.00135 0.1860285,-0.18809 z"></path><path style="color:#000000;font-style:normal;font-variant:normal;font-weight:normal;font-stretch:normal;font-size:medium;line-height:normal;font-family:sans-serif;font-variant-ligatures:normal;font-variant-position:normal;font-variant-caps:normal;font-variant-numeric:normal;font-variant-alternates:normal;font-feature-settings:normal;text-indent:0;text-align:start;text-decoration:none;text-decoration-line:none;text-decoration-style:solid;text-decoration-color:#000000;letter-spacing:normal;word-spacing:normal;text-transform:none;writing-mode:lr-tb;direction:ltr;text-orientation:mixed;dominant-baseline:auto;baseline-shift:baseline;text-anchor:start;white-space:normal;shape-padding:0;clip-rule:nonzero;display:inline;overflow:visible;visibility:visible;opacity:1;isolation:auto;mix-blend-mode:normal;color-interpolation:sRGB;color-interpolation-filters:linearRGB;solid-color:#000000;solid-opacity:1;fill:#000000;fill-opacity:1;fill-rule:evenodd;stroke:none;stroke-width:0.26458329px;stroke-linecap:butt;stroke-linejoin:miter;stroke-miterlimit:4;stroke-dasharray:none;stroke-dashoffset:0;stroke-opacity:1;color-rendering:auto;image-rendering:auto;shape-rendering:auto;text-rendering:auto;enable-background:accumulate" d="m 1.2789939,293.41107 -0.1912144,0.1824 2.992067,3.14193 0.2961217,-0.25837 0.00317,-0.003 c 0.073369,-0.0733 0.091599,-0.18629 0.045482,-0.27903 L 4.314532,295.97467 c -0.076967,-0.15399 -0.067892,-0.30165 -0.051673,-0.47852 0.01614,-0.17685 0.042254,-0.38267 -0.05424,-0.59582 l -0.045482,-0.10078 -0.1075002,0.0269 c 0,0 -0.1695979,0.0425 -0.3560498,0.0635 -0.093213,0.0106 -0.1900238,0.0154 -0.2645833,0.008 -0.074533,-0.007 -0.1191684,-0.0317 -0.1209146,-0.0336 l -0.00265,-0.003 -0.2852473,-0.28527 c -0.00794,-0.009 -0.0037,-0.006 -0.0037,-0.003 2.64e-5,0 0,-0.003 0,0 v 0 c -1.323e-4,0 0,0.003 0.00265,-0.003 0.010848,-0.0172 0.053419,-0.0549 0.103849,-0.0801 l 0.4547658,-0.22738 -0.710565,-0.71107 -0.1870604,0.18709 0.451141,0.45164 -0.1266031,0.0631 c -0.079719,0.0398 -0.1569508,0.0921 -0.2098146,0.17622 -0.026458,0.0421 -0.046064,0.0954 -0.043921,0.15451 0.00265,0.0591 0.027914,0.11851 0.067178,0.16434 l 0.0037,0.004 0.2904066,0.29043 c 0.080645,0.0873 0.1861344,0.10756 0.2904332,0.11732 0.1042987,0.01 0.2148152,0.003 0.3188493,-0.009 0.1303602,-0.0148 0.1941777,-0.0272 0.2743994,-0.0429 0.025665,0.11134 0.009,0.2204 -0.00397,0.36227 -0.016669,0.18079 -0.033126,0.39725 0.078555,0.62063 l 0.1018117,0.2036 -0.083211,0.0729 z"></path><path style="color:#000000;font-style:normal;font-variant:normal;font-weight:normal;font-stretch:normal;font-size:medium;line-height:normal;font-family:sans-serif;font-variant-ligatures:normal;font-variant-position:normal;font-variant-caps:normal;font-variant-numeric:normal;font-variant-alternates:normal;font-feature-settings:normal;text-indent:0;text-align:start;text-decoration:none;text-decoration-line:none;text-decoration-style:solid;text-decoration-color:#000000;letter-spacing:normal;word-spacing:normal;text-transform:none;writing-mode:lr-tb;direction:ltr;text-orientation:mixed;dominant-baseline:auto;baseline-shift:baseline;text-anchor:start;white-space:normal;shape-padding:0;clip-rule:nonzero;display:inline;overflow:visible;visibility:visible;opacity:1;isolation:auto;mix-blend-mode:normal;color-interpolation:sRGB;color-interpolation-filters:linearRGB;solid-color:#000000;solid-opacity:1;fill:#000000;fill-opacity:1;fill-rule:nonzero;stroke:none;stroke-width:0.26499999;stroke-linecap:round;stroke-linejoin:round;stroke-miterlimit:4;stroke-dasharray:none;stroke-dashoffset:0;stroke-opacity:1;color-rendering:auto;image-rendering:auto;shape-rendering:auto;text-rendering:auto;enable-background:accumulate" d="m 1.587498,292.05455 c -0.4375679,0 -0.79374996,0.35671 -0.79374996,0.79428 v 0.13176 c 0,0.43757 0.35618206,0.79375 0.79374996,0.79375 h 5.2916666 c 0.4375679,0 0.79375,-0.35618 0.79375,-0.79375 v -0.13176 c 0,-0.43757 -0.3561821,-0.79428 -0.79375,-0.79428 z m 0,0.26511 h 5.2916666 c 0.2953279,0 0.528664,0.23382 0.528664,0.52917 v 0.13176 c 0,0.29533 -0.2333361,0.52917 -0.528664,0.52917 H 1.587498 c -0.2953279,0 -0.5286375,-0.23384 -0.5286375,-0.52917 v -0.13176 c 0,-0.29535 0.2333096,-0.52917 0.5286375,-0.52917 z"></path><path style="color:#000000;font-style:normal;font-variant:normal;font-weight:normal;font-stretch:normal;font-size:medium;line-height:normal;font-family:sans-serif;font-variant-ligatures:normal;font-variant-position:normal;font-variant-caps:normal;font-variant-numeric:normal;font-variant-alternates:normal;font-feature-settings:normal;text-indent:0;text-align:start;text-decoration:none;text-decoration-line:none;text-decoration-style:solid;text-decoration-color:#000000;letter-spacing:normal;word-spacing:normal;text-transform:none;writing-mode:lr-tb;direction:ltr;text-orientation:mixed;dominant-baseline:auto;baseline-shift:baseline;text-anchor:start;white-space:normal;shape-padding:0;clip-rule:nonzero;display:inline;overflow:visible;visibility:visible;opacity:1;isolation:auto;mix-blend-mode:normal;color-interpolation:sRGB;color-interpolation-filters:linearRGB;solid-color:#000000;solid-opacity:1;fill:#000000;fill-opacity:1;fill-rule:evenodd;stroke:none;stroke-width:0.26458332px;stroke-linecap:butt;stroke-linejoin:miter;stroke-miterlimit:4;stroke-dasharray:none;stroke-dashoffset:0;stroke-opacity:1;color-rendering:auto;image-rendering:auto;shape-rendering:auto;text-rendering:auto;enable-background:accumulate" d="m 1.8520814,289.47849 -0.3317611,0.92966 c -0.086704,0.24276 -0.1312598,0.49877 -0.1312598,0.75653 v 1.02216 h 0.2645834 v -1.02216 c 0,-0.22744 0.039264,-0.45344 0.1157552,-0.66765 l 0.082682,-0.23151 0.082682,0.23151 c 0.076491,0.21421 0.1157552,0.44021 0.1157552,0.66765 v 1.02216 h 0.2645833 v -1.02216 c 0,-0.25776 -0.044556,-0.51377 -0.1312598,-0.75653 z"></path><path style="opacity:1;fill:#000000;fill-opacity:1;stroke:none;stroke-width:0.26458332;stroke-linecap:butt;stroke-linejoin:miter;stroke-miterlimit:4;stroke-dasharray:none;stroke-opacity:1" d="m 6.4822632,292.91461 a 0.13229166,0.13229166 0 0 0 0.1322916,0.13229 0.13229166,0.13229166 0 0 0 0.1322917,-0.13229 0.13229166,0.13229166 0 0 0 -0.1322917,-0.1323 0.13229166,0.13229166 0 0 0 -0.1322916,0.1323 z"></path><path d="m 1.7197632,292.91461 a 0.13229166,0.13229166 0 0 0 0.1322917,0.13229 0.13229166,0.13229166 0 0 0 0.1322917,-0.13229 0.13229166,0.13229166 0 0 0 -0.1322917,-0.1323 0.13229166,0.13229166 0 0 0 -0.1322917,0.1323 z" style="opacity:1;fill:#000000;fill-opacity:1;stroke:none;stroke-width:0.26458332;stroke-linecap:butt;stroke-linejoin:miter;stroke-miterlimit:4;stroke-dasharray:none;stroke-opacity:1"></path></g></svg>